<?xml version="1.0" encoding="UTF-8"?>
<svg id="svg4" xmlns="http://www.w3.org/2000/svg" xmlns:xlink="http://www.w3.org/1999/xlink" viewBox="0 0 256 256">
  <defs>
    <style>
      .cls-1 {
        fill: none;
      }

      .cls-2 {
        clip-path: url(#clippath);
      }

      .cls-3 {
        fill: #03b042;
      }

      .cls-4 {
        fill: #02a1e2;
      }

      .cls-5 {
        fill: #ffd833;
      }

      .cls-6 {
        fill: #feb300;
      }

      .cls-7 {
        fill: #d8291c;
      }
    </style>
    <clipPath id="clippath">
      <path id="path2" class="cls-1" d="m115.05,6.29c-37.45.06-72.79,17.35-95.81,46.89,14.84,3.97,25.35,7.37,28.5,8.43.05-1.93.37-19.2.37-19.2,0,0,.04-.4.25-.6.27-.27.66-.19.66-.19,3.9.57,87.24,12.92,122.37,33.39,4.34,2.54,6.48,5.24,9.15,7.97,9.71,10.04,22.54,51.8,23.92,60.41.05.34-.36.71-.54.85h0c-1,.78-2.08,1.59-3.17,2.31-8.31,5.58-27.46,18.98-52.03,16.79-22.07-1.95-50.9-14.61-85.66-37.51,3.42,8,6.78,16.03,10.15,24.05,5.03,2.61,53.62,27.37,77.59,26.89,19.31-.4,39.97-9.82,48.23-14.8,0,0,1.82-1.09,2.61-.48.86.67.63,1.69.42,2.74-.51,2.37-1.67,6.7-2.45,8.75l-.66,1.67c-.95,2.53-1.85,4.89-3.6,6.34-4.87,4.43-12.64,7.95-24.81,13.24-18.82,8.23-49.35,13.47-77.69,13.29-10.15-.23-19.96-1.35-28.57-2.36-17.68-2-32.06-3.61-40.83,2.73,23.07,26.51,56.47,41.75,91.61,41.81,67.22,0,121.71-54.49,121.71-121.71h0c0-67.22-54.49-121.71-121.71-121.71h0,0Zm27.15,70.62c-9.53-.3-18.61,3.06-25.57,9.56-6.96,6.48-10.94,15.32-11.3,24.84-.66,19.64,14.76,36.19,34.38,36.91,9.57.32,18.63-3.04,25.6-9.58,6.94-6.46,10.93-15.3,11.3-24.82.67-19.62-14.76-36.2-34.41-36.91h0Zm-.3,10.5c13.73.49,24.48,12.02,24.01,25.74-.21,6.62-3,12.75-7.85,17.3-4.86,4.53-11.21,6.88-17.87,6.68-13.7-.51-24.44-12.05-23.98-25.78.2-6.64,3.05-12.78,7.88-17.31,4.83-4.53,11.15-6.88,17.81-6.64Zm4.07,12.48c-6.1,0-11.03,3.28-11.03,7.37s4.93,7.35,11.03,7.35,11.04-3.3,11.04-7.35-4.94-7.37-11.04-7.37Z"/>
    </clipPath>
  </defs>
  <g class="cls-2">
    <rect class="cls-4" x="-39.62" y="218.85" width="318.92" height="61.69"/>
    <rect class="cls-7" x="-39.62" y="158.28" width="318.92" height="60.56"/>
    <rect class="cls-6" x="-39.62" y="97.72" width="318.92" height="60.56"/>
    <rect class="cls-5" x="-39.62" y="37.15" width="318.92" height="60.56"/>
    <rect class="cls-3" x="-39.62" y="-23.42" width="318.92" height="60.57"/>
  </g>
</svg>